<svg width="30" height="30" fill="none" xmlns="http://www.w3.org/2000/svg"><circle cx="15" cy="15" r="15" fill="#3B86F6"/><circle cx="15" cy="15" r="15" fill="url(#a)" fill-opacity=".55"/><path d="M4.83 11.47 15.46 8 26 11.47l-10.54 3.66-4.86-1.56 4.95-1.73c.64-.28-.1-1-1.1-.64l-4.58 1.64c-1.6.73-1.47 3.02-1.47 3.02 0 2.85-.1 5.2-1.83 6.03-1.18.36-2.23-.24-2.57-.82 1.74-.46 3.06-2.57 3.06-5.21 0-2.05 1.07-3.2 1.07-3.2l-3.3-1.19Z" fill="url(#b)"/><path d="m9.5 18.05.73-2.56s2.77 1.64 5.23 1.64c2.46 0 4.86-1.64 4.86-1.64l.73 2.56c.18 1.18-1.1 1.64-1.38 1.92-.2.2-2.56 1.46-4.21 1.46-1.56 0-2.84-.55-4.5-1.46-1.31-.74-1.52-1.59-1.46-1.92Z" fill="url(#c)"/><defs><linearGradient id="a" x1="6.25" y1="0" x2="12.02" y2="30.79" gradientUnits="userSpaceOnUse"><stop stop-color="#00FFF0"/><stop offset="1" stop-color="#fff" stop-opacity="0"/></linearGradient><linearGradient id="b" x1="15" y1="8" x2="15" y2="22" gradientUnits="userSpaceOnUse"><stop stop-color="#fff"/><stop offset=".21" stop-color="#fff"/><stop offset="1" stop-color="#fff" stop-opacity=".38"/></linearGradient><linearGradient id="c" x1="15" y1="8" x2="15" y2="22" gradientUnits="userSpaceOnUse"><stop stop-color="#fff"/><stop offset=".21" stop-color="#fff"/><stop offset="1" stop-color="#fff" stop-opacity=".38"/></linearGradient></defs></svg>