<svg width="20" height="20" fill="none" xmlns="http://www.w3.org/2000/svg"><path d="M3 2a1 1 0 0 1 1-1h7.93c.26 0 .5.1.7.28l4.06 3.93c.2.18.31.44.31.71V18a1 1 0 0 1-1 1H4a1 1 0 0 1-1-1V2Z" fill="#3B86F6"/><path d="M3 2a1 1 0 0 1 1-1h7.93c.26 0 .5.1.7.28l4.06 3.93c.2.18.31.44.31.71V18a1 1 0 0 1-1 1H4a1 1 0 0 1-1-1V2Z" fill="url(#a)" fill-opacity=".55"/><rect x="5" y="7" width="10" height="2" rx="1" fill="url(#b)"/><rect x="5" y="10" width="10" height="2" rx="1" fill="url(#c)"/><rect x="5" y="13" width="7" height="2" rx="1" fill="url(#d)"/><defs><linearGradient id="a" x1="5.92" y1="1" x2="10.27" y2="19.07" gradientUnits="userSpaceOnUse"><stop stop-color="#00FFF0"/><stop offset="1" stop-color="#fff" stop-opacity="0"/></linearGradient><linearGradient id="b" x1="10" y1="7" x2="10" y2="9" gradientUnits="userSpaceOnUse"><stop stop-color="#fff"/><stop offset=".21" stop-color="#fff"/><stop offset="1" stop-color="#fff" stop-opacity=".38"/></linearGradient><linearGradient id="c" x1="10" y1="10" x2="10" y2="12" gradientUnits="userSpaceOnUse"><stop stop-color="#fff"/><stop offset=".21" stop-color="#fff"/><stop offset="1" stop-color="#fff" stop-opacity=".38"/></linearGradient><linearGradient id="d" x1="8.5" y1="13" x2="8.5" y2="15" gradientUnits="userSpaceOnUse"><stop stop-color="#fff"/><stop offset=".21" stop-color="#fff"/><stop offset="1" stop-color="#fff" stop-opacity=".38"/></linearGradient></defs></svg>