<svg width="20" height="20" viewBox="0 0 20 20" fill="none" xmlns="http://www.w3.org/2000/svg">
  <g clip-path="url(#clip0_313_23168)">
    <path d="M3 2C3 1.44772 3.44772 1 4 1H11.9297C12.1887 1 12.4375 1.10043 12.6239 1.28016L16.6941 5.20506C16.8896 5.39353 17 5.65338 17 5.9249V18C17 18.5523 16.5523 19 16 19H4C3.44772 19 3 18.5523 3 18V2Z" fill="#FF9C06" fill-opacity="0.96"/>
    <path d="M3 2C3 1.44772 3.44772 1 4 1H11.9297C12.1887 1 12.4375 1.10043 12.6239 1.28016L16.6941 5.20506C16.8896 5.39353 17 5.65338 17 5.9249V18C17 18.5523 16.5523 19 16 19H4C3.44772 19 3 18.5523 3 18V2Z" fill="url(#paint0_linear_313_23168)" fill-opacity="0.55"/>
    <path d="M8.625 13.0717V12.9773C8.63163 12.3608 8.69295 11.8703 8.80895 11.5057C8.92827 11.1411 9.0973 10.8461 9.31605 10.6207C9.5348 10.3954 9.7983 10.1899 10.1065 10.0043C10.3054 9.87831 10.4844 9.73745 10.6435 9.58168C10.8026 9.4259 10.9285 9.24692 11.0213 9.04474C11.1141 8.84257 11.1605 8.61884 11.1605 8.37358C11.1605 8.0786 11.0909 7.82339 10.9517 7.60795C10.8125 7.39252 10.6269 7.2268 10.3949 7.1108C10.1662 6.99148 9.91099 6.93182 9.62926 6.93182C9.37405 6.93182 9.13045 6.98485 8.89844 7.09091C8.66643 7.19697 8.4742 7.36269 8.32173 7.58807C8.16927 7.81013 8.08144 8.09683 8.05824 8.44815H6.54688C6.57008 7.85156 6.72088 7.34777 6.99929 6.93679C7.2777 6.52249 7.6456 6.20928 8.10298 5.99716C8.56368 5.78504 9.07244 5.67898 9.62926 5.67898C10.2391 5.67898 10.7727 5.79332 11.2301 6.02202C11.6875 6.2474 12.0421 6.56392 12.294 6.97159C12.5492 7.37595 12.6768 7.84825 12.6768 8.38849C12.6768 8.75971 12.6188 9.09446 12.5028 9.39276C12.3868 9.68774 12.2211 9.95123 12.0057 10.1832C11.7936 10.4152 11.5384 10.6207 11.2401 10.7997C10.9583 10.9754 10.7296 11.1577 10.554 11.3466C10.3816 11.5355 10.2557 11.7592 10.1761 12.0178C10.0966 12.2763 10.0535 12.5961 10.0469 12.9773V13.0717H8.625ZM9.37571 16.0945C9.10393 16.0945 8.87027 15.9983 8.67472 15.8061C8.47917 15.6106 8.38139 15.3752 8.38139 15.1001C8.38139 14.8284 8.47917 14.5964 8.67472 14.4041C8.87027 14.2086 9.10393 14.1108 9.37571 14.1108C9.64418 14.1108 9.87618 14.2086 10.0717 14.4041C10.2706 14.5964 10.37 14.8284 10.37 15.1001C10.37 15.2824 10.3236 15.4498 10.2308 15.6023C10.1413 15.7514 10.022 15.8707 9.87287 15.9602C9.72372 16.0497 9.558 16.0945 9.37571 16.0945Z" fill="url(#paint1_linear_313_23168)"/>
  </g><svg width="20" height="20" viewBox="0 0 20 20" fill="none" xmlns="http://www.w3.org/2000/svg">
  <g clip-path="url(#clip0_313_23168)">
    <path d="M3 2C3 1.44772 3.44772 1 4 1H11.9297C12.1887 1 12.4375 1.10043 12.6239 1.28016L16.6941 5.20506C16.8896 5.39353 17 5.65338 17 5.9249V18C17 18.5523 16.5523 19 16 19H4C3.44772 19 3 18.5523 3 18V2Z" fill="#FF9C06" fill-opacity="0.96"/>
    <path d="M3 2C3 1.44772 3.44772 1 4 1H11.9297C12.1887 1 12.4375 1.10043 12.6239 1.28016L16.6941 5.20506C16.8896 5.39353 17 5.65338 17 5.9249V18C17 18.5523 16.5523 19 16 19H4C3.44772 19 3 18.5523 3 18V2Z" fill="url(#paint0_linear_313_23168)" fill-opacity="0.55"/>
    <path d="M8.625 13.0717V12.9773C8.63163 12.3608 8.69295 11.8703 8.80895 11.5057C8.92827 11.1411 9.0973 10.8461 9.31605 10.6207C9.5348 10.3954 9.7983 10.1899 10.1065 10.0043C10.3054 9.87831 10.4844 9.73745 10.6435 9.58168C10.8026 9.4259 10.9285 9.24692 11.0213 9.04474C11.1141 8.84257 11.1605 8.61884 11.1605 8.37358C11.1605 8.0786 11.0909 7.82339 10.9517 7.60795C10.8125 7.39252 10.6269 7.2268 10.3949 7.1108C10.1662 6.99148 9.91099 6.93182 9.62926 6.93182C9.37405 6.93182 9.13045 6.98485 8.89844 7.09091C8.66643 7.19697 8.4742 7.36269 8.32173 7.58807C8.16927 7.81013 8.08144 8.09683 8.05824 8.44815H6.54688C6.57008 7.85156 6.72088 7.34777 6.99929 6.93679C7.2777 6.52249 7.6456 6.20928 8.10298 5.99716C8.56368 5.78504 9.07244 5.67898 9.62926 5.67898C10.2391 5.67898 10.7727 5.79332 11.2301 6.02202C11.6875 6.2474 12.0421 6.56392 12.294 6.97159C12.5492 7.37595 12.6768 7.84825 12.6768 8.38849C12.6768 8.75971 12.6188 9.09446 12.5028 9.39276C12.3868 9.68774 12.2211 9.95123 12.0057 10.1832C11.7936 10.4152 11.5384 10.6207 11.2401 10.7997C10.9583 10.9754 10.7296 11.1577 10.554 11.3466C10.3816 11.5355 10.2557 11.7592 10.1761 12.0178C10.0966 12.2763 10.0535 12.5961 10.0469 12.9773V13.0717H8.625ZM9.37571 16.0945C9.10393 16.0945 8.87027 15.9983 8.67472 15.8061C8.47917 15.6106 8.38139 15.3752 8.38139 15.1001C8.38139 14.8284 8.47917 14.5964 8.67472 14.4041C8.87027 14.2086 9.10393 14.1108 9.37571 14.1108C9.64418 14.1108 9.87618 14.2086 10.0717 14.4041C10.2706 14.5964 10.37 14.8284 10.37 15.1001C10.37 15.2824 10.3236 15.4498 10.2308 15.6023C10.1413 15.7514 10.022 15.8707 9.87287 15.9602C9.72372 16.0497 9.558 16.0945 9.37571 16.0945Z" fill="url(#paint1_linear_313_23168)"/>
  </g>
  <defs>
    <linearGradient id="paint0_linear_313_23168" x1="5.91667" y1="1" x2="10.2739" y2="19.0746" gradientUnits="userSpaceOnUse">
      <stop stop-color="#FAFF00"/>
      <stop offset="1" stop-color="white" stop-opacity="0"/>
    </linearGradient>
    <linearGradient id="paint1_linear_313_23168" x1="10" y1="6" x2="10" y2="16" gradientUnits="userSpaceOnUse">
      <stop stop-color="white"/>
      <stop offset="1" stop-color="white" stop-opacity="0.47"/>
    </linearGradient>
    <clipPath id="clip0_313_23168">
      <rect width="20" height="20" fill="white"/>
    </clipPath>
  </defs>
</svg>
  <defs>
    <linearGradient id="paint0_linear_313_23168" x1="5.91667" y1="1" x2="10.2739" y2="19.0746" gradientUnits="userSpaceOnUse">
      <stop stop-color="#FAFF00"/>
      <stop offset="1" stop-color="white" stop-opacity="0"/>
    </linearGradient>
    <linearGradient id="paint1_linear_313_23168" x1="10" y1="6" x2="10" y2="16" gradientUnits="userSpaceOnUse">
      <stop stop-color="white"/>
      <stop offset="1" stop-color="white" stop-opacity="0.47"/>
    </linearGradient>
    <clipPath id="clip0_313_23168">
      <rect width="20" height="20" fill="white"/>
    </clipPath>
  </defs>
</svg>
