<svg width="25" height="24" fill="none" xmlns="http://www.w3.org/2000/svg"><path d="M25 10.65c0 5.88-5.6 10.65-12.5 10.65-.84 0-1.66-.07-2.45-.2a13.4 13.4 0 0 1-5.82-2.46C1.63 16.69 0 13.84 0 10.65 0 4.77 5.6 0 12.5 0S25 4.77 25 10.65Z" fill="#3B86F6"/><path d="M25 10.65c0 5.88-5.6 10.65-12.5 10.65-.84 0-1.66-.07-2.45-.2a13.4 13.4 0 0 1-5.82-2.46C1.63 16.69 0 13.84 0 10.65 0 4.77 5.6 0 12.5 0S25 4.77 25 10.65Z" fill="url(#a)" fill-opacity=".55"/><path d="M2.8 22c-.62.72-.18 2.01.77 1.93 4.1-.35 6-1.93 6.48-2.83a13.4 13.4 0 0 1-5.82-2.46c.12 1.15-.57 2.35-1.42 3.36Z" fill="#3B86F6"/><path d="M2.8 22c-.62.72-.18 2.01.77 1.93 4.1-.35 6-1.93 6.48-2.83a13.4 13.4 0 0 1-5.82-2.46c.12 1.15-.57 2.35-1.42 3.36Z" fill="url(#b)" fill-opacity=".55"/><rect x="5.65" y="7.65" width="2.42" height="7.78" rx="1.21" fill="url(#c)"/><rect x="9.68" y="9.7" width="2.42" height="5.74" rx="1.21" fill="url(#d)"/><rect x="17.74" y="9.7" width="2.42" height="5.74" rx="1.21" fill="url(#e)"/><rect x="13.71" y="5.6" width="2.42" height="9.83" rx="1.21" fill="url(#f)"/><defs><linearGradient id="a" x1="5.21" y1="0" x2="9.65" y2="24.7" gradientUnits="userSpaceOnUse"><stop stop-color="#00FFF0"/><stop offset="1" stop-color="#fff" stop-opacity="0"/></linearGradient><linearGradient id="b" x1="5.21" y1="0" x2="9.65" y2="24.7" gradientUnits="userSpaceOnUse"><stop stop-color="#00FFF0"/><stop offset="1" stop-color="#fff" stop-opacity="0"/></linearGradient><linearGradient id="c" x1="6.85" y1="7.65" x2="6.85" y2="15.43" gradientUnits="userSpaceOnUse"><stop stop-color="#fff"/><stop offset=".21" stop-color="#fff"/><stop offset="1" stop-color="#fff" stop-opacity=".38"/></linearGradient><linearGradient id="d" x1="10.89" y1="9.7" x2="10.89" y2="15.43" gradientUnits="userSpaceOnUse"><stop stop-color="#fff"/><stop offset=".21" stop-color="#fff"/><stop offset="1" stop-color="#fff" stop-opacity=".38"/></linearGradient><linearGradient id="e" x1="18.95" y1="9.7" x2="18.95" y2="15.43" gradientUnits="userSpaceOnUse"><stop stop-color="#fff"/><stop offset=".21" stop-color="#fff"/><stop offset="1" stop-color="#fff" stop-opacity=".38"/></linearGradient><linearGradient id="f" x1="14.92" y1="5.6" x2="14.92" y2="15.43" gradientUnits="userSpaceOnUse"><stop stop-color="#fff"/><stop offset=".21" stop-color="#fff"/><stop offset="1" stop-color="#fff" stop-opacity=".38"/></linearGradient></defs></svg>